# xmcd CD database file
#
# Track frame offsets:
#	150
#	19146
#	42543
#	64937
#	77956
#	89107
#	110691
#	127463
#	146547
#	166973
#	185619
#	202991
#	214345
#	232064
#
# Disc length: 3397 seconds
#
# Revision: 0
# Processed by: cddbd v1.5PL3 Copyright (c) Steve Scherf et al.
# Submitted via: CDex 1.50
#
DISCID=e00d430e
DTITLE=Ella Fitzgerald - Joe Pass - Again
DYEAR=1976
DGENRE=Jazz
TTITLE0=I Aint´t Got Nothin´But The Blues
TTITLE1=´tis Autumn
TTITLE2=My Old Flame
TTITLE3=That Old Feeling
TTITLE4=Rain 
TTITLE5=I Didn´t Know About You
TTITLE6=You Took Advantage Of Me
TTITLE7=I´ve Got The World On A String
TTITLE8=All Too Soon
TTITLE9=The One I Love
TTITLE10=Solitude
TTITLE11=Nature Boy
TTITLE12=Tennessee Waltz
TTITLE13=One Note Samba
EXTD=YEAR: 1976
EXTT0=
EXTT1=
EXTT2=
EXTT3=
EXTT4=
EXTT5=
EXTT6=
EXTT7=
EXTT8=
EXTT9=
EXTT10=
EXTT11=
EXTT12=
EXTT13=
PLAYORDER=
